<svg xmlns="http://www.w3.org/2000/svg" viewBox="0 0 128 128" role="img" aria-labelledby="title desc">
  <title id="title">Blueprints plugin icon</title>
  <desc id="desc">A blueprint sheet with a course tile, arrow, and create symbol.</desc>
  <rect width="128" height="128" rx="24" fill="#f8fbff"/>
  <path d="M30 22h76a8 8 0 0 1 8 8v76a8 8 0 0 1-8 8H30z" fill="#fff" stroke="#0b5cad" stroke-width="6"/>
  <path d="M30 22c-9 0-16 7-16 16v74c0-8 7-14 16-14 4 0 7 1 10 4V34c0-7-4-12-10-12z" fill="#eaf4ff" stroke="#0b5cad" stroke-width="6" stroke-linejoin="round"/>
  <path d="M48 32v78M66 32v78M84 32v78M102 32v78M34 50h78M34 70h78M34 90h78" stroke="#8bb8ea" stroke-width="1.5"/>
  <rect x="42" y="55" width="26" height="34" rx="4" fill="#fff" stroke="#0b5cad" stroke-width="5"/>
  <path d="M49 66h12M49 77h12" stroke="#0b5cad" stroke-width="4" stroke-linecap="round"/>
  <path d="M72 72h20" stroke="#59a52c" stroke-width="7" stroke-linecap="round"/>
  <path d="m88 61 13 11-13 11" fill="none" stroke="#59a52c" stroke-width="7" stroke-linecap="round" stroke-linejoin="round"/>
  <rect x="84" y="52" width="25" height="34" rx="5" fill="#fff" stroke="#0b5cad" stroke-width="4" stroke-dasharray="5 4"/>
  <circle cx="98" cy="94" r="16" fill="#67b33d"/>
  <path d="M98 85v18M89 94h18" stroke="#fff" stroke-width="5" stroke-linecap="round"/>
</svg>
